<svg width="70" height="16" viewBox="0 0 70 16" fill="none" xmlns="http://www.w3.org/2000/svg">
<g clip-path="url(#clip0_166_1398)">
<path d="M4.64484 10.6863C3.58608 10.6863 2.70666 9.9255 2.50906 8.91057L0.140137 9.37261C0.544298 11.5108 2.41042 13.1232 4.64484 13.1232C5.91881 13.1232 7.06724 12.5978 7.90215 11.7552L5.96365 10.2424C5.59568 10.5143 5.13835 10.6863 4.64484 10.6863ZM4.64484 6.2926C5.13835 6.2926 5.59568 6.4646 5.96365 6.74553L7.90215 5.23271C7.06724 4.39042 5.91881 3.86474 4.64484 3.86474C2.41042 3.86474 0.544298 5.47747 0.140137 7.61532L2.50906 8.08641C2.69769 7.06271 3.57711 6.2926 4.64484 6.2926ZM37.3239 11.0125C36.1217 11.0125 35.2422 10.1247 35.1078 8.82004V8.13167C35.2422 6.84519 36.1217 5.95763 37.3239 5.95763C38.6972 5.95763 39.6659 6.99939 39.6659 8.4757C39.657 9.97076 38.6972 11.0125 37.3239 11.0125ZM38.0329 3.86474C36.8125 3.86474 35.7988 4.3992 35.0988 5.30513V4.06422H32.6222V15.8589H35.0988V11.6647C35.7899 12.5887 36.8125 13.1232 38.0329 13.1232C40.375 13.1232 42.0707 11.2026 42.0707 8.48475C42.0707 5.77619 40.375 3.86474 38.0329 3.86474ZM47.8494 11.0125C46.5303 11.0125 45.4267 9.85307 45.4267 8.4757C45.4267 7.10799 46.5303 5.95763 47.8494 5.95763C49.1503 5.95763 50.2542 7.10799 50.2542 8.4757C50.2632 9.85307 49.1592 11.0125 47.8494 11.0125ZM47.8494 3.86474C45.2384 3.86474 43.0488 5.96665 43.0488 8.48475C43.0488 11.0035 45.2384 13.1232 47.8494 13.1232C50.4425 13.1232 52.6138 11.0035 52.6138 8.48475C52.6138 5.96665 50.4425 3.86474 47.8494 3.86474ZM53.7895 12.915H56.2657V0.956712H53.7895V12.915ZM65.6696 7.42484C64.485 7.09897 64.1264 6.96314 64.1264 6.48306C64.1264 6.1749 64.5481 5.9486 65.1582 5.9486C65.9028 5.9486 66.8181 6.23831 67.6168 6.73651L68.6128 4.96113C67.6437 4.30864 66.4053 3.86474 65.1582 3.86474C63.0945 3.86474 61.7216 5.06071 61.7305 6.73651C61.7485 8.48475 63.1393 8.98332 64.9337 9.42725C65.8314 9.66263 66.477 9.83497 66.477 10.3872C66.477 10.7768 66.0014 11.0578 65.3375 11.0578C64.1712 11.0578 63.1842 10.632 62.4034 10.0613L61.3446 11.7824C62.3944 12.634 63.8843 13.1142 65.2928 13.1142C67.4464 13.1142 68.8549 12 68.8549 10.2605C68.8549 8.33085 67.1771 7.81449 65.6696 7.42484ZM57.8901 12.915H60.3666V4.06422H57.8901V12.915ZM59.1374 0.15068C58.3746 0.15068 57.7824 0.784712 57.7824 1.4824C57.7824 2.23421 58.3746 2.85045 59.1374 2.85045C59.8641 2.85045 60.4562 2.23421 60.4562 1.4824C60.4656 0.784712 59.8731 0.15068 59.1374 0.15068ZM29.2125 0.966065H26.736L25.8117 2.86825H28.2883L29.2125 0.966065ZM25.1658 7.5067C25.489 6.61881 26.2694 6.06622 27.2026 6.06622C28.2079 6.06622 28.8445 6.62791 29.087 7.5067H25.1658ZM27.104 3.85596C24.5467 3.85596 22.5906 5.79432 22.5906 8.45791C22.5906 11.1755 24.6275 13.1142 27.2384 13.1142C28.5307 13.1142 30.0382 12.5706 30.8189 11.7462L29.2395 10.1156C28.7639 10.5776 27.9206 10.9036 27.2206 10.9036C26.1887 10.9036 25.4258 10.2514 25.1389 9.29112H31.4559C31.4559 5.96665 29.8495 3.85596 27.104 3.85596ZM18.2476 3.86474C17.1082 3.86474 16.1301 4.37205 15.6007 5.17841V4.06422H13.1242V12.915H15.6007V7.66964C15.6007 6.70936 16.4171 5.96665 17.4489 5.96665C18.4363 5.96665 19.1091 6.71838 19.1091 7.81449V12.915H21.4956V7.27999C21.505 5.27799 20.1499 3.86474 18.2476 3.86474ZM10.1452 0.141574C9.38232 0.141574 8.79023 0.775607 8.79023 1.47304C8.79023 2.22511 9.38232 2.84135 10.1452 2.84135C10.8718 2.84135 11.4643 2.22511 11.4643 1.47304C11.4643 0.775607 10.8718 0.141574 10.1452 0.141574ZM8.88885 12.915H11.3654V4.06422H8.88885V12.915Z" fill="#212E5C"/>
<path d="M69.8599 12.6252C69.8599 12.9243 69.6265 13.1597 69.3213 13.1597C69.0164 13.1597 68.7739 12.9243 68.7739 12.6252C68.7739 12.3261 69.0164 12.0908 69.3213 12.0908C69.6265 12.0998 69.8599 12.3355 69.8599 12.6252ZM68.9088 12.6252C68.9088 12.8609 69.0788 13.051 69.3213 13.051C69.5548 13.051 69.7251 12.8609 69.7251 12.6252C69.7251 12.3895 69.5548 12.1994 69.3213 12.1994C69.0881 12.1994 68.9088 12.3895 68.9088 12.6252ZM69.2406 12.9062H69.1151V12.3714C69.1598 12.3623 69.2316 12.3533 69.3213 12.3533C69.4199 12.3533 69.4647 12.3714 69.5007 12.3895C69.5279 12.4167 69.5548 12.4532 69.5548 12.5072C69.5548 12.5618 69.5096 12.6071 69.4468 12.6343V12.6433C69.5007 12.6614 69.5279 12.6976 69.5455 12.7701C69.5637 12.8519 69.5727 12.8878 69.5817 12.9062H69.4468C69.4292 12.8878 69.4199 12.8334 69.402 12.7791C69.3933 12.7248 69.3572 12.6976 69.2944 12.6976H69.2406V12.9062ZM69.2406 12.6071H69.2944C69.3661 12.6071 69.4199 12.5799 69.4199 12.5256C69.4199 12.4804 69.3844 12.4438 69.3033 12.4438C69.2675 12.4438 69.2495 12.4438 69.2316 12.4532L69.2406 12.6071Z" fill="#212E5C"/>
</g>
<defs>
<clipPath id="clip0_166_1398">
<rect width="70" height="16" fill="white"/>
</clipPath>
</defs>
</svg>
