<svg width="32" height="32" viewBox="0 0 32 32" fill="none" xmlns="http://www.w3.org/2000/svg">
<path d="M24 12H18.388L19.511 8.633C19.713 8.025 19.611 7.351 19.236 6.831C18.861 6.311 18.253 6 17.612 6H16C15.703 6 15.422 6.132 15.231 6.36L10.531 12H8C6.897 12 6 12.897 6 14V23C6 24.103 6.897 25 8 25H21.307C21.7139 24.9986 22.1108 24.8738 22.4452 24.6421C22.7797 24.4103 23.0359 24.0825 23.18 23.702L25.937 16.351C25.9789 16.2387 26.0002 16.1198 26 16V14C26 12.897 25.103 12 24 12ZM8 14H10V23H8V14ZM24 15.819L21.307 23H12V13.362L16.468 8H17.614L16.052 12.683C16.0013 12.8333 15.9871 12.9936 16.0107 13.1504C16.0343 13.3073 16.095 13.4563 16.1877 13.585C16.2803 13.7138 16.4024 13.8186 16.5436 13.8908C16.6849 13.9629 16.8414 14.0004 17 14H24V15.819Z" fill="#333333"/>
</svg>
