<svg width="166" height="168" viewBox="0 0 166 168" fill="none" xmlns="http://www.w3.org/2000/svg">
<rect x="21.0257" y="54.6844" width="136.647" height="16.5583" transform="rotate(9.46961 21.0257 54.6844)" fill="#F2C46F" stroke="black" stroke-width="2.5"/>
<rect x="19.5044" y="36.6469" width="136.647" height="16.5583" transform="rotate(-5.53039 19.5044 36.6469)" fill="#F2C46F" stroke="black" stroke-width="2.5"/>
<rect x="23.6777" y="73.4224" width="125.249" height="72.5348" transform="rotate(9.46961 23.6777 73.4224)" fill="#1A2C50" stroke="black" stroke-width="2.5"/>
<rect x="34.7627" y="84.9007" width="99.6043" height="26.4691" transform="rotate(9.46961 34.7627 84.9007)" fill="#F2C46F" stroke="black" stroke-width="2.5"/>
<rect x="30.231" y="112.07" width="49.2645" height="26.4691" transform="rotate(9.46961 30.231 112.07)" fill="#F2C46F" stroke="black" stroke-width="2.5"/>
<rect x="79.8848" y="120.352" width="49.2645" height="26.4691" transform="rotate(9.46961 79.8848 120.352)" fill="#F2C46F" stroke="black" stroke-width="2.5"/>
<circle cx="25.189" cy="63.9816" r="2.33687" transform="rotate(9.46961 25.189 63.9816)" fill="#1A2C50" stroke="black" stroke-width="1.5"/>
<circle cx="25.9321" cy="44.5497" r="2.33687" transform="rotate(-5.53039 25.9321 44.5497)" fill="#1A2C50" stroke="black" stroke-width="1.5"/>
<path d="M150.613 75.5134L138.275 91.7511" stroke="black" stroke-width="2.5"/>
<path d="M151.157 23.0978L143.474 41.9883" stroke="black" stroke-width="2.5"/>
<path d="M139.37 73.6382L127.033 89.876" stroke="black" stroke-width="2.5"/>
<path d="M139.814 24.2152L132.131 43.1058" stroke="black" stroke-width="2.5"/>
<path d="M128.128 71.763L115.79 88.0007" stroke="black" stroke-width="2.5"/>
<path d="M128.472 25.3325L120.788 44.2231" stroke="black" stroke-width="2.5"/>
<path d="M116.886 69.8878L104.548 86.1255" stroke="black" stroke-width="2.5"/>
<path d="M117.128 26.4498L109.445 45.3403" stroke="black" stroke-width="2.5"/>
<path d="M105.643 68.0126L93.3057 84.2503" stroke="black" stroke-width="2.5"/>
<path d="M105.786 27.5672L98.1024 46.4577" stroke="black" stroke-width="2.5"/>
<path d="M94.4008 66.1374L82.0631 82.3752" stroke="black" stroke-width="2.5"/>
<path d="M94.4431 28.6846L86.7599 47.5751" stroke="black" stroke-width="2.5"/>
<path d="M83.1585 64.2623L70.8207 80.5" stroke="black" stroke-width="2.5"/>
<path d="M83.1002 29.8019L75.417 48.6924" stroke="black" stroke-width="2.5"/>
<path d="M71.9161 62.387L59.5784 78.6248" stroke="black" stroke-width="2.5"/>
<path d="M71.7577 30.9192L64.0744 49.8098" stroke="black" stroke-width="2.5"/>
<path d="M60.674 60.5119L48.3363 76.7496" stroke="black" stroke-width="2.5"/>
<path d="M60.4146 32.0365L52.7313 50.927" stroke="black" stroke-width="2.5"/>
<path d="M49.4314 58.6366L37.0937 74.8744" stroke="black" stroke-width="2.5"/>
<path d="M49.0715 33.1538L41.3883 52.0443" stroke="black" stroke-width="2.5"/>
</svg>
