<svg width="185" height="36" viewBox="0 0 185 36" fill="none" xmlns="http://www.w3.org/2000/svg">
<g clip-path="url(#clip0_166_1306)">
<path fill-rule="evenodd" clip-rule="evenodd" d="M8 19.4946C8 20.1651 8.02577 20.602 8.1847 21.2421C8.28349 21.6401 8.42524 22.0077 8.58846 22.3754C8.70444 22.6349 8.85048 22.8728 8.99223 23.1151C9.2027 23.4741 9.4819 23.7682 9.74391 24.0797C9.82982 24.1835 9.94579 24.2657 10.036 24.3608C10.1004 24.43 10.1649 24.4776 10.2379 24.5382C10.2765 24.5728 10.2937 24.5901 10.3367 24.6247L10.6674 24.8712C11.0411 25.1481 11.2602 25.2389 11.6382 25.4335C11.8014 25.5157 11.9947 25.5936 12.1751 25.6541C12.7764 25.8661 13.4207 25.9829 14.0736 26.0002H14.4301C15.0143 25.9829 15.5942 25.8877 16.1354 25.7017L16.7453 25.4681C17.2608 25.2432 17.8793 24.8626 18.2874 24.4776C18.4334 24.3392 18.5837 24.2137 18.7212 24.0667C18.7899 23.9931 18.8501 23.9066 18.9274 23.8374C18.9789 23.9326 19.4256 24.3478 19.5158 24.417C19.954 24.7761 20.4651 25.1308 20.9934 25.347L21.5733 25.5676C21.6807 25.6022 21.7752 25.6282 21.8869 25.6628L22.3679 25.7709C22.4367 25.7796 22.4968 25.7926 22.5526 25.7969C23.91 26.0002 25.3017 25.6931 26.4743 24.9923C26.5473 24.9491 26.5989 24.9102 26.6719 24.8669C26.805 24.789 26.9253 24.6896 27.0499 24.5987C27.1143 24.5511 27.1701 24.5079 27.226 24.4517C27.2604 24.4214 27.2775 24.4127 27.3119 24.3824L27.5739 24.1402C27.5868 24.1272 27.5782 24.1359 27.5954 24.1186C27.5954 24.1186 27.5997 24.1143 27.604 24.1099L27.6813 24.0321C27.7414 23.9629 27.823 23.898 27.8789 23.8245C28.0163 23.6385 28.1323 23.5173 28.3084 23.2794C28.3557 23.2146 28.3943 23.154 28.4373 23.0848C28.5232 22.955 28.6091 22.8209 28.6778 22.6782C28.7165 22.596 28.7508 22.5441 28.7895 22.4663C28.9227 22.2024 29.2061 21.5536 29.2276 21.2854C29.3092 21.3806 29.4209 21.6358 29.481 21.7482C29.567 21.9039 29.6357 22.0683 29.7302 22.2197L30.7224 24.1013C30.7525 24.1662 30.7782 24.1964 30.8083 24.257C30.9243 24.4906 31.0875 24.8323 31.2336 25.0269C31.3753 25.2173 31.5299 25.3557 31.7361 25.4811C32.316 25.8315 33.0934 25.7709 33.6175 25.3557C33.669 25.3168 33.7077 25.2821 33.7506 25.2389C33.8365 25.1524 33.9224 25.0615 33.9869 24.9534C34.1372 24.7069 34.309 24.3262 34.4336 24.1186C34.468 24.058 34.4894 24.0148 34.5195 23.9542L34.9619 23.1151C34.9963 23.0459 35.0263 23.0026 35.0564 22.9421C35.2497 22.5484 35.4731 22.1591 35.6749 21.7698L35.9498 21.2551C36.1904 20.8096 36.4137 20.3554 36.6629 19.9099L37.1955 18.8934C37.2299 18.8328 37.2513 18.7939 37.2857 18.729C37.3201 18.6598 37.3458 18.6252 37.3802 18.556L37.5606 18.2143C37.595 18.1581 37.6164 18.1062 37.6465 18.0456L38.6258 16.1943C38.9308 15.6363 38.905 14.9875 38.5872 14.4468C38.5528 14.3862 38.5271 14.3603 38.4884 14.304L38.3509 14.1483C38.3295 14.1267 38.3424 14.1397 38.3209 14.1224L38.1276 13.9623C37.9815 13.8499 37.8226 13.785 37.6465 13.7288C37.406 13.6466 37.0924 13.6379 36.8261 13.6898C36.4438 13.7677 36.1818 13.945 35.9241 14.1959C35.8553 14.2651 35.7651 14.3862 35.7179 14.4684L35.4774 14.9312C35.4516 14.9831 35.4215 15.0307 35.3957 15.087C35.3442 15.1908 35.2927 15.2989 35.2368 15.407L33.3254 19.1616C33.2996 19.2135 33.2695 19.2654 33.2438 19.3173L33.0891 19.6244C33.072 19.6547 33.0677 19.6677 33.0505 19.6979C33.0376 19.7239 33.0419 19.7152 33.0333 19.7369C33.0204 19.7585 33.0247 19.7585 33.0118 19.7844C32.8615 20.0526 32.7197 20.3122 32.6467 20.6149L32.6081 20.7447C32.6081 20.749 32.6038 20.762 32.5995 20.7663C32.5866 20.7966 32.5952 20.7793 32.5866 20.7923C32.5479 20.6193 32.5007 20.4289 32.4191 20.2689C32.3933 20.217 32.3675 20.1651 32.3375 20.1089L29.5584 14.6587C29.5412 14.6285 29.5369 14.6198 29.5197 14.5852C29.2878 14.118 28.7723 13.7201 28.2053 13.6595C28.1452 13.6552 28.0292 13.6379 27.982 13.6422C27.3506 13.6941 26.8222 13.9796 26.5258 14.5376C26.3068 14.9485 26.2724 15.3941 26.397 15.8439C26.4786 16.1424 26.7535 16.5749 26.9038 16.8734C26.9339 16.9339 26.9597 16.9772 26.994 17.0378L27.6169 18.2186C26.5817 18.2186 25.5508 18.2186 24.5156 18.2186C24.0517 18.2186 23.6308 18.2532 23.3129 18.5733C23.1712 18.716 23.0681 18.8285 22.9779 19.0145C22.5999 19.7715 22.9349 20.7447 23.7253 21.0475C24.0388 21.1686 24.3352 21.1426 24.7519 21.1426C25.1299 21.1426 25.5078 21.1426 25.8901 21.1426C25.8386 21.2378 25.7613 21.3416 25.6925 21.4238C25.4091 21.7525 25.3146 21.8564 24.928 22.1072C24.8979 22.1289 24.8893 22.1332 24.8593 22.1505C24.8292 22.1635 24.812 22.1764 24.7776 22.1937C24.0474 22.5701 23.0037 22.6306 22.2734 22.2586C22.0501 22.1462 21.8396 22.0207 21.6549 21.852C21.4702 21.6877 21.3113 21.5017 21.1652 21.2984C21.118 21.2292 21.0793 21.16 21.0364 21.0864C20.6369 20.3857 20.5467 19.46 20.8044 18.6901C20.8474 18.5647 20.8861 18.4522 20.9376 18.3441L21.2082 17.8812C21.3371 17.6909 21.5003 17.5265 21.6721 17.3751C21.8912 17.1762 22.1489 17.0291 22.4238 16.9166C23.0208 16.6744 23.1497 16.8388 23.7124 16.2678C23.794 16.1856 23.8541 16.0775 23.9143 15.978C24.1634 15.5671 24.1935 14.9183 23.9873 14.4857C23.9014 14.304 23.794 14.1397 23.6566 13.9969L23.605 13.9494C23.489 13.8455 23.3731 13.7461 23.2313 13.6768C22.5312 13.3222 21.6764 13.6033 21.0106 13.8888L20.4307 14.1829C20.0528 14.4122 19.765 14.6112 19.4256 14.9096C19.2839 15.0307 19.0949 15.1994 18.9875 15.3422L18.8672 15.4763C18.6396 15.7488 18.4291 16.0256 18.2444 16.3327C18.1542 16.4841 18.0812 16.6139 17.9996 16.7782C17.5829 17.613 17.3295 18.5171 17.3295 19.6071C17.3295 19.9142 17.351 20.2083 17.3896 20.4938C17.3939 20.5241 17.4154 20.6322 17.4154 20.6668C17.4111 20.7447 17.2908 20.8918 17.2436 20.961L16.6337 21.6877L16.3759 21.9083C16.3416 21.9342 16.3115 21.9602 16.2728 21.9904C16.2299 22.0207 16.1998 22.038 16.1569 22.0726C15.7316 22.3841 15.0057 22.6609 14.4516 22.6609C14.2841 22.6609 14.0994 22.6739 13.9276 22.6522C13.8589 22.6436 13.8202 22.6393 13.7515 22.6306C13.5625 22.6003 13.3219 22.5311 13.1587 22.4619C12.4715 22.1764 11.9174 21.6574 11.5952 20.9869C11.1528 20.057 11.2301 18.9886 11.7498 18.1105C11.9904 17.7039 12.3426 17.3665 12.7464 17.1199L13.1286 16.9253L13.5539 16.7869C13.6999 16.7436 13.8674 16.7263 14.0307 16.7047C14.4688 16.6398 14.7952 16.6744 15.1603 16.4149C15.1861 16.3976 15.2119 16.376 15.242 16.3543C15.5899 16.0688 15.8777 15.632 15.8777 15.1302C15.8777 14.7539 15.8304 14.4814 15.6543 14.1829C15.6285 14.1397 15.6114 14.1051 15.577 14.0618C15.3923 13.8153 15.2033 13.6509 14.9155 13.5125C14.2884 13.2054 13.2446 13.426 12.6562 13.5644L12.218 13.6985C12.1149 13.7331 12.0376 13.7634 11.9431 13.8023C11.8486 13.8412 11.7627 13.8801 11.6682 13.9191C11.3246 14.0618 10.9982 14.2738 10.6932 14.4771C10.3882 14.6804 10.1133 14.9269 9.85559 15.1864C9.72244 15.3205 9.60646 15.433 9.49049 15.5801C9.2027 15.9391 8.9278 16.3111 8.72162 16.7263C8.69585 16.7782 8.67437 16.8085 8.65289 16.8561C8.62712 16.9123 8.61424 16.9426 8.59276 16.9902L8.3694 17.5309C8.14604 18.1278 8.0043 18.8328 8.0043 19.4946H8Z" fill="#EE2E24"/>
<path fill-rule="evenodd" clip-rule="evenodd" d="M41.8815 13.8583L41.8858 13.828C41.8128 13.8107 41.7226 13.7718 41.6539 13.7459C41.3575 13.6334 41.4649 13.6334 41.1771 13.7415C41.1041 13.7675 41.001 13.7978 40.9408 13.828V13.4171L40.3094 13.0624L40.2665 13.0581C40.1075 13.1316 39.5921 13.3003 39.489 13.3566C38.9822 13.642 39.3215 14.4682 39.9271 14.2217L40.7132 13.9275C40.7647 13.9102 40.8678 13.8583 40.9236 13.854C40.9236 14.04 40.9022 14.5504 40.9322 14.6931C41.0053 15.0435 41.4219 15.2036 41.714 14.97C41.7913 14.9094 41.8557 14.8099 41.8815 14.6975C41.903 14.598 41.9202 13.9492 41.8815 13.8497V13.8583Z" fill="#EE2E24"/>
<path fill-rule="evenodd" clip-rule="evenodd" d="M41.4092 11.6826V11.7388L41.6583 12.4439C41.7227 12.4396 42.1136 12.206 42.1995 12.1541C42.2425 12.1281 42.2425 12.0979 42.2597 12.1411C42.2897 12.0935 42.2511 12.1195 42.2983 12.0762L42.7579 10.757C42.7966 10.6445 42.8224 10.6099 42.8181 10.4672C42.8181 10.2119 42.6291 10.0346 42.4143 10H42.264C42.1695 10.0173 42.0793 10.0606 42.0019 10.1384C41.9246 10.2163 41.916 10.2466 41.8731 10.359L41.4092 11.6826Z" fill="#F26F21"/>
<path fill-rule="evenodd" clip-rule="evenodd" d="M40.5243 12.0849L40.5501 12.1238L41.0011 12.3747C41.0569 12.4093 41.1042 12.4266 41.1514 12.4612L41.4048 11.7388V11.6826L41.0354 10.6229C40.9581 10.4023 40.898 10.0735 40.593 10.0087C40.5801 10.0043 40.563 10.0043 40.5501 10H40.404C40.1893 10.0303 40.0089 10.1946 39.9917 10.4585C39.9831 10.5969 40.0948 10.8737 40.1463 11.0078C40.215 11.1895 40.2666 11.3669 40.331 11.5399C40.3654 11.6264 40.3911 11.7129 40.4212 11.7994C40.4384 11.8513 40.447 11.8859 40.4685 11.9378C40.4899 11.9941 40.5028 12.02 40.5157 12.0806L40.5243 12.0849Z" fill="#EE2E24"/>
<path fill-rule="evenodd" clip-rule="evenodd" d="M42.3028 12.0762C42.2556 12.1194 42.2942 12.0935 42.2642 12.1411L42.0107 12.8678L42.5176 13.0581H42.5605L43.6086 12.4525C43.7933 12.3487 44.0639 12.2103 43.9866 11.8426C43.9265 11.5658 43.6473 11.4144 43.3853 11.4793C43.2908 11.5052 42.6679 11.8772 42.5262 11.9551C42.4489 11.9983 42.3844 12.0416 42.3071 12.0762H42.3028Z" fill="#EE2E24"/>
<path fill-rule="evenodd" clip-rule="evenodd" d="M40.2711 13.0623L40.314 13.0666C40.3656 13.0233 40.7436 12.9066 40.8209 12.8676C40.7951 12.8114 40.7779 12.7422 40.7565 12.6816L40.6233 12.3053C40.6061 12.2491 40.5803 12.1712 40.5546 12.1193L40.5288 12.0804L39.8931 11.7127C39.8373 11.6824 39.5237 11.4964 39.4636 11.4791C39.3862 11.4575 39.2359 11.4575 39.1586 11.4878C39.0125 11.5397 38.8665 11.6868 38.845 11.8511C38.7849 12.2923 39.1156 12.3832 39.4292 12.5735L40.0649 12.9368C40.1122 12.9628 40.2453 13.032 40.2754 13.0579L40.2711 13.0623Z" fill="#F26F21"/>
<path fill-rule="evenodd" clip-rule="evenodd" d="M41.886 13.828L41.8817 13.8583C41.9462 13.8626 42.2168 13.9708 42.2898 14.0011C42.3542 14.027 42.4144 14.0486 42.4831 14.0746L42.8783 14.226C43.1016 14.3168 43.3207 14.2736 43.4667 14.0876C43.66 13.841 43.5698 13.4907 43.3293 13.3609C43.2691 13.3306 43.2047 13.309 43.136 13.283L42.5518 13.0581H42.5089L41.8774 13.4171L41.8817 13.828H41.886Z" fill="#F26F21"/>
</g>
<defs>
<clipPath id="clip0_166_1306">
<rect width="36" height="16" fill="white" transform="translate(8 10)"/>
</clipPath>
</defs>
</svg>
