<svg width="185" height="185" viewBox="0 0 185 185" fill="none" xmlns="http://www.w3.org/2000/svg">
<circle opacity="0.46" cx="92.1788" cy="92.1789" r="76.7621" fill="#242424"/>
<path d="M92.5 11.5625C113.966 11.5625 134.553 20.0898 149.731 35.2685C164.91 50.4473 173.438 71.034 173.438 92.5C173.438 113.966 164.91 134.553 149.731 149.731C134.553 164.91 113.966 173.438 92.5 173.438C71.034 173.438 50.4473 164.91 35.2685 149.731C20.0898 134.553 11.5625 113.966 11.5625 92.5C11.5625 71.034 20.0898 50.4473 35.2685 35.2685C50.4473 20.0898 71.034 11.5625 92.5 11.5625ZM92.5 161.875C110.899 161.875 128.545 154.566 141.556 141.556C154.566 128.545 161.875 110.899 161.875 92.5C161.875 74.1006 154.566 56.4548 141.556 43.4445C128.545 30.4341 110.899 23.125 92.5 23.125C74.1006 23.125 56.4548 30.4341 43.4445 43.4445C30.4341 56.4548 23.125 74.1006 23.125 92.5C23.125 110.899 30.4341 128.545 43.4445 141.556C56.4548 154.566 74.1006 161.875 92.5 161.875ZM79.8281 117.14L116.793 92.5L79.8281 67.8603V117.14ZM81.7475 55.2341L126.818 85.285C128.006 86.0769 128.98 87.1498 129.653 88.4085C130.327 89.6671 130.679 91.0725 130.679 92.5C130.679 93.9275 130.327 95.3329 129.653 96.5916C128.98 97.8502 128.006 98.9231 126.818 99.715L81.7475 129.766C80.4415 130.636 78.9238 131.136 77.3561 131.212C75.7884 131.288 74.2296 130.937 72.8457 130.196C71.4619 129.456 70.305 128.353 69.4984 127.007C68.6918 125.661 68.2657 124.12 68.2656 122.551V62.4375C68.2657 60.868 68.6918 59.3279 69.4984 57.9815C70.305 56.6351 71.4619 55.5329 72.8457 54.7923C74.2296 54.0517 75.7884 53.7006 77.3561 53.7764C78.9238 53.8521 80.4415 54.3519 81.7475 55.2225V55.2341Z" fill="white" fill-opacity="0.85"/>
</svg>
