<svg width="23" height="23" viewBox="0 0 23 23" fill="none" xmlns="http://www.w3.org/2000/svg">
<g clip-path="url(#clip0_59_440)">
<path d="M15.0941 11.4999C15.0941 12.453 14.7155 13.3671 14.0415 14.041C13.3676 14.715 12.4535 15.0936 11.5004 15.0936C10.5472 15.0936 9.63317 14.715 8.95921 14.041C8.28525 13.3671 7.90663 12.453 7.90663 11.4999C7.90663 10.5468 8.28525 9.63267 8.95921 8.95872C9.63317 8.28476 10.5472 7.90613 11.5004 7.90613C12.4535 7.90613 13.3676 8.28476 14.0415 8.95872C14.7155 9.63267 15.0941 10.5468 15.0941 11.4999Z" fill="#2D2C2C"/>
<path d="M0.000492563 11.5C0.000492563 11.5 4.31298 3.59374 11.5005 3.59374C18.688 3.59374 23.0004 11.5 23.0004 11.5C23.0004 11.5 18.688 19.4062 11.5005 19.4062C4.31298 19.4062 0.000492563 11.5 0.000492563 11.5ZM11.5005 16.5312C12.8348 16.5312 14.1146 16.0011 15.0581 15.0576C16.0016 14.1141 16.5317 12.8343 16.5317 11.5C16.5317 10.1656 16.0016 8.88589 15.0581 7.94235C14.1146 6.99881 12.8348 6.46874 11.5005 6.46874C10.1661 6.46874 8.88638 6.99881 7.94284 7.94235C6.9993 8.88589 6.46923 10.1656 6.46923 11.5C6.46923 12.8343 6.9993 14.1141 7.94284 15.0576C8.88638 16.0011 10.1661 16.5312 11.5005 16.5312Z" fill="#2D2C2C"/>
</g>
<defs>
<clipPath id="clip0_59_440">
<rect width="22.8" height="22.8" fill="white" transform="scale(1.00877)"/>
</clipPath>
</defs>
</svg>
