<svg width="69" height="16" viewBox="0 0 69 16" fill="none" xmlns="http://www.w3.org/2000/svg">
<g clip-path="url(#clip0_0_269)">
<path d="M4.57853 10.6863C3.5349 10.6863 2.66804 9.9255 2.47326 8.91057L0.138184 9.37261C0.536571 11.5108 2.37603 13.1232 4.57853 13.1232C5.83431 13.1232 6.96633 12.5978 7.78931 11.7552L5.8785 10.2424C5.51579 10.5143 5.06499 10.6863 4.57853 10.6863ZM4.57853 6.2926C5.06499 6.2926 5.51579 6.4646 5.8785 6.74553L7.78931 5.23271C6.96633 4.39042 5.83431 3.86474 4.57853 3.86474C2.37603 3.86474 0.536571 5.47747 0.138184 7.61532L2.47326 8.08641C2.6592 7.06271 3.52606 6.2926 4.57853 6.2926ZM36.7908 11.0125C35.6057 11.0125 34.7388 10.1247 34.6063 8.82004V8.13167C34.7388 6.84519 35.6057 5.95763 36.7908 5.95763C38.1444 5.95763 39.0993 6.99939 39.0993 8.4757C39.0905 9.97076 38.1444 11.0125 36.7908 11.0125ZM37.4897 3.86474C36.2867 3.86474 35.2875 4.3992 34.5974 5.30513V4.06422H32.1563V15.8589H34.5974V11.6647C35.2787 12.5887 36.2867 13.1232 37.4897 13.1232C39.7983 13.1232 41.4697 11.2026 41.4697 8.48475C41.4697 5.77619 39.7983 3.86474 37.4897 3.86474ZM47.1659 11.0125C45.8656 11.0125 44.7778 9.85307 44.7778 8.4757C44.7778 7.10799 45.8656 5.95763 47.1659 5.95763C48.4482 5.95763 49.5364 7.10799 49.5364 8.4757C49.5452 9.85307 48.457 11.0125 47.1659 11.0125ZM47.1659 3.86474C44.5922 3.86474 42.4339 5.96665 42.4339 8.48475C42.4339 11.0035 44.5922 13.1232 47.1659 13.1232C49.722 13.1232 51.8623 11.0035 51.8623 8.48475C51.8623 5.96665 49.722 3.86474 47.1659 3.86474ZM53.0211 12.915H55.4619V0.956712H53.0211V12.915ZM64.7316 7.42484C63.5639 7.09897 63.2103 6.96314 63.2103 6.48306C63.2103 6.1749 63.626 5.9486 64.2274 5.9486C64.9614 5.9486 65.8636 6.23831 66.6509 6.73651L67.6327 4.96113C66.6774 4.30864 65.4567 3.86474 64.2274 3.86474C62.1932 3.86474 60.8399 5.06071 60.8487 6.73651C60.8664 8.48475 62.2374 8.98332 64.0062 9.42725C64.891 9.66263 65.5274 9.83497 65.5274 10.3872C65.5274 10.7768 65.0586 11.0578 64.4042 11.0578C63.2545 11.0578 62.2816 10.632 61.5119 10.0613L60.4683 11.7824C61.5031 12.634 62.9717 13.1142 64.36 13.1142C66.4829 13.1142 67.8713 12 67.8713 10.2605C67.8713 8.33085 66.2175 7.81449 64.7316 7.42484ZM57.0631 12.915H59.5043V4.06422H57.0631V12.915ZM58.2926 0.15068C57.5407 0.15068 56.957 0.784712 56.957 1.4824C56.957 2.23421 57.5407 2.85045 58.2926 2.85045C59.009 2.85045 59.5926 2.23421 59.5926 1.4824C59.6018 0.784712 59.0178 0.15068 58.2926 0.15068ZM28.7952 0.966065H26.3541L25.443 2.86825H27.8842L28.7952 0.966065ZM24.8063 7.5067C25.1249 6.61881 25.8941 6.06622 26.8141 6.06622C27.805 6.06622 28.4325 6.62791 28.6715 7.5067H24.8063ZM26.7168 3.85596C24.1961 3.85596 22.2679 5.79432 22.2679 8.45791C22.2679 11.1755 24.2757 13.1142 26.8494 13.1142C28.1232 13.1142 29.6091 12.5706 30.3787 11.7462L28.8218 10.1156C28.353 10.5776 27.5218 10.9036 26.8318 10.9036C25.8146 10.9036 25.0627 10.2514 24.7798 9.29112H31.0066C31.0066 5.96665 29.4231 3.85596 26.7168 3.85596ZM17.987 3.86474C16.8638 3.86474 15.8997 4.37205 15.3779 5.17841V4.06422H12.9368V12.915H15.3779V7.66964C15.3779 6.70936 16.1826 5.96665 17.1997 5.96665C18.1729 5.96665 18.8362 6.71838 18.8362 7.81449V12.915H21.1886V7.27999C21.1978 5.27799 19.8621 3.86474 17.987 3.86474ZM10.0003 0.141574C9.24834 0.141574 8.6647 0.775607 8.6647 1.47304C8.6647 2.22511 9.24834 2.84135 10.0003 2.84135C10.7166 2.84135 11.3006 2.22511 11.3006 1.47304C11.3006 0.775607 10.7166 0.141574 10.0003 0.141574ZM8.76192 12.915H11.2031V4.06422H8.76192V12.915Z" fill="#212E5C"/>
<path d="M68.862 12.6252C68.862 12.9243 68.6319 13.1597 68.331 13.1597C68.0305 13.1597 67.7915 12.9243 67.7915 12.6252C67.7915 12.3261 68.0305 12.0908 68.331 12.0908C68.6319 12.0998 68.862 12.3355 68.862 12.6252ZM67.9244 12.6252C67.9244 12.8609 68.0921 13.051 68.331 13.051C68.5612 13.051 68.7291 12.8609 68.7291 12.6252C68.7291 12.3895 68.5612 12.1994 68.331 12.1994C68.1012 12.1994 67.9244 12.3895 67.9244 12.6252ZM68.2515 12.9062H68.1278V12.3714C68.1719 12.3623 68.2426 12.3533 68.331 12.3533C68.4282 12.3533 68.4725 12.3714 68.5079 12.3895C68.5347 12.4167 68.5612 12.4532 68.5612 12.5072C68.5612 12.5618 68.5167 12.6071 68.4548 12.6343V12.6433C68.5079 12.6614 68.5347 12.6976 68.5521 12.7701C68.57 12.8519 68.5789 12.8878 68.5877 12.9062H68.4548C68.4375 12.8878 68.4282 12.8334 68.4106 12.7791C68.4021 12.7248 68.3664 12.6976 68.3045 12.6976H68.2515V12.9062ZM68.2515 12.6071H68.3045C68.3752 12.6071 68.4282 12.5799 68.4282 12.5256C68.4282 12.4804 68.3933 12.4438 68.3133 12.4438C68.278 12.4438 68.2603 12.4438 68.2426 12.4532L68.2515 12.6071Z" fill="#212E5C"/>
</g>
<defs>
<clipPath id="clip0_0_269">
<rect width="69" height="16" fill="white"/>
</clipPath>
</defs>
</svg>
