<svg width="24" height="22" viewBox="0 0 24 22" fill="none" xmlns="http://www.w3.org/2000/svg">
<path d="M9.8216 16.5C11.5649 16.4997 13.2579 15.955 14.6312 14.9527L18.9487 18.9823L20.3374 17.6862L16.0199 13.6565C17.0944 12.3747 17.6783 10.7941 17.6788 9.16665C17.6788 5.12323 14.1538 1.83331 9.8216 1.83331C5.48937 1.83331 1.96445 5.12323 1.96445 9.16665C1.96445 13.2101 5.48937 16.5 9.8216 16.5ZM9.8216 3.66664C13.0715 3.66664 15.7145 6.13339 15.7145 9.16665C15.7145 12.1999 13.0715 14.6667 9.8216 14.6667C6.57169 14.6667 3.92874 12.1999 3.92874 9.16665C3.92874 6.13339 6.57169 3.66664 9.8216 3.66664Z" fill="#333333"/>
</svg>
