<svg width="32" height="32" viewBox="0 0 32 32" fill="none" xmlns="http://www.w3.org/2000/svg">
<path fill-rule="evenodd" clip-rule="evenodd" d="M19.6503 9.653C18.5108 9.23059 17.2816 9.0003 16 9.0003C11.4498 9.0003 7.56109 11.9029 6 16.0003C6.64042 17.6812 7.67257 19.161 8.98141 20.3219L10.3984 18.9048C9.47831 18.1114 8.71736 17.1246 8.1755 16.0003C9.61369 13.0163 12.5953 11.0003 16 11.0003C16.7057 11.0003 17.3932 11.0869 18.0525 11.2508L19.6503 9.653ZM18.186 13.9457C18.1869 13.9466 18.1878 13.9476 18.1887 13.9486L20.0901 12.0471C20.0889 12.0465 20.0877 12.0458 20.0865 12.0452L21.5488 10.5829C21.5499 10.5836 21.5511 10.5843 21.5522 10.585L24.1998 7.93742C24.5903 7.5469 25.2235 7.5469 25.614 7.93742C26.0046 8.32795 26.0046 8.96111 25.614 9.35164L23.1596 11.806C24.4016 12.947 25.3828 14.3803 26 16.0003C24.4389 20.0977 20.5502 23.0003 16 23.0003C14.792 23.0003 13.6307 22.7957 12.5471 22.4185L9.61403 25.3516C9.2235 25.7422 8.59034 25.7422 8.19981 25.3516C7.80929 24.9611 7.80929 24.3279 8.19981 23.9374L10.6181 21.5191C10.6169 21.5184 10.6158 21.5178 10.6146 21.5171L12.085 20.0467C12.0862 20.0473 12.0874 20.0479 12.0887 20.0486L13.9482 18.189C13.9473 18.1881 13.9463 18.1872 13.9454 18.1863L18.186 13.9457ZM16.2892 13.0141C16.194 13.005 16.0976 13.0003 16 13.0003C14.3431 13.0003 13 14.3434 13 16.0003C13 16.0979 13.0046 16.1943 13.0138 16.2895L16.2892 13.0141ZM21.7442 13.2215L18.9998 15.9659L19 16.0003C19 17.6572 17.6568 19.0003 16 19.0003L15.9656 19.0001L14.1649 20.8008C14.7575 20.9316 15.3715 21.0003 16 21.0003C19.4047 21.0003 22.3863 18.9843 23.8245 16.0003C23.3109 14.9347 22.6005 13.9925 21.7442 13.2215Z" fill="#333333"/>
</svg>
